<?xml version="1.0" encoding="UTF-8"?>
<svg xmlns="http://www.w3.org/2000/svg" width="144" height="26" viewBox="0 0 144 26" fill="none">
  <path d="M56.8281 0.919434V25.0884H63.5676V0.919434H56.8281Z" fill="#6653C6"></path>
  <path d="M76.1284 10.0346C72.7799 9.2725 71.9509 8.79009 71.9509 7.6834V7.61651C71.9509 6.75101 72.7495 6.05983 74.371 6.05983C76.5094 6.05983 78.9275 6.89087 81.1409 8.44349L84.4894 3.71266C81.8605 1.6067 78.6498 0.5 74.5433 0.5C68.7402 0.5 65.1871 3.74509 65.1871 8.23472V8.30566C65.1871 13.2777 69.1598 14.7249 74.3021 15.9025C77.5837 16.6606 78.3782 17.214 78.3782 18.2153V18.2821C78.3782 19.3179 77.4053 19.9422 75.6115 19.9422C72.8164 19.9422 70.1571 18.9389 67.7734 17.0417L64.0459 21.4928C67.0153 24.1521 71.0935 25.5 75.3703 25.5C81.2402 25.5 85.14 22.563 85.14 17.6275V17.5565C85.14 13.0345 81.6902 11.2366 76.1284 10.0306V10.0346Z" fill="#6653C6"></path>
  <path d="M86.416 0.919434V25.0884H93.1515V0.919434H86.416Z" fill="#6653C6"></path>
  <path d="M136.379 0.919434V13.6931L126.439 0.919434H120.19V25.0884H126.818V11.8283L137.142 25.0884H143.012V0.919434H136.379Z" fill="#6653C6"></path>
  <path d="M49.0915 0.919434L43.6067 16.2146L38.1117 0.919434H30.6182L40.4244 25.2627H46.6409L56.4472 0.919434H49.0915Z" fill="#6653C6"></path>
  <path d="M16.8092 12.4526C18.9517 11.5202 20.5408 9.86017 20.5408 7.06505V6.99411C20.5408 5.33811 19.957 4.06116 18.9841 3.09634C17.5693 1.6775 15.4309 0.919434 12.3926 0.919434H0V25.0884H12.4615C18.2281 25.0884 21.6151 22.5669 21.6151 18.4239V18.357C21.6151 15.0754 19.7503 13.4194 16.8113 12.4526H16.8092ZM6.52059 6.30293H10.8724C12.873 6.30293 13.9087 7.06505 13.9087 8.37444V8.44538C13.9087 9.86017 12.7736 10.5513 10.7386 10.5513H6.52059V6.30293ZM14.9161 17.4895C14.9161 18.9083 13.7384 19.7029 11.7014 19.7029H6.52262V15.2477H11.6386C13.8803 15.2477 14.9181 16.1092 14.9181 17.4226V17.4895H14.9161Z" fill="#6653C6"></path>
  <path d="M110.086 17.1556C109.166 17.9015 107.996 18.3474 106.719 18.3474C103.764 18.3474 101.368 15.9516 101.368 12.9963C101.368 10.2336 103.466 7.9574 106.162 7.67566V0.926025C99.7486 1.21993 94.6367 6.51018 94.6367 12.9963C94.6367 19.4825 100.047 25.0828 106.719 25.0828C109.857 25.0828 112.715 23.8869 114.861 21.9269L110.086 17.1556Z" fill="#6653C6"></path>
  <path d="M29.8513 4.75031C29.8513 6.86844 28.1345 8.58321 26.0184 8.58321C23.9023 8.58321 22.1875 6.86844 22.1875 4.75031C22.1875 2.63218 23.9023 0.919434 26.0184 0.919434C28.1345 0.919434 29.8513 2.63421 29.8513 4.75031Z" fill="#2FCA02"></path>
  <path d="M107.275 0.925537V7.67517C109.971 7.95692 112.069 10.2331 112.069 12.9958C112.069 14.2728 111.623 15.4464 110.873 16.3666L115.649 21.138C117.613 18.9915 118.804 16.1335 118.804 12.9958C118.804 6.5097 113.689 1.21741 107.275 0.925537Z" fill="#2FCA02"></path>
</svg>
